<?xml version="1.0" encoding="utf-8"?>
<svg xmlns="http://www.w3.org/2000/svg" viewBox="1.6602 9.7552 45.3047 27.7019" width="45.3047px" height="27.7019px">
  <g id="surface1">
    <path style="stroke: none; fill-rule: nonzero; fill-opacity: 1; fill: rgb(250, 246, 212);" d="M 37.550781 16.890625 C 36.453125 17.421875 35.335938 17.742188 34.128906 17.675781 C 33.757812 17.65625 33.636719 17.796875 33.652344 18.195312 C 33.6875 19.085938 34.003906 19.886719 34.464844 20.644531 C 35.195312 21.835938 36.265625 22.703125 37.257812 23.644531 C 38.652344 24.960938 39.769531 26.449219 40.210938 28.363281 C 40.730469 30.609375 40.296875 32.601562 38.632812 34.265625 C 38.578125 34.320312 38.5 34.363281 38.503906 34.519531 C 41.269531 35.265625 44.136719 35.542969 46.964844 36.054688 C 44.695312 36.496094 42.386719 36.566406 40.117188 36.996094 C 41.695312 37.113281 43.273438 37.234375 44.851562 37.351562 C 44.847656 37.386719 44.84375 37.421875 44.84375 37.457031 C 31.183594 37.457031 17.523438 37.457031 3.863281 37.457031 C 3.859375 37.421875 3.855469 37.390625 3.855469 37.355469 C 5.347656 37.242188 6.84375 37.128906 8.335938 37.015625 C 8.335938 36.980469 8.339844 36.945312 8.339844 36.910156 C 6.125 36.53125 3.871094 36.441406 1.660156 36.027344 C 1.945312 35.835938 2.273438 35.84375 2.582031 35.800781 C 5.179688 35.433594 7.792969 35.148438 10.339844 34.480469 C 10.535156 34.425781 10.730469 34.445312 10.925781 34.511719 C 12.628906 35.089844 14.398438 35.34375 16.183594 35.519531 C 19.367188 35.835938 22.5625 35.945312 25.757812 35.898438 C 28.730469 35.859375 31.710938 35.835938 34.640625 35.226562 C 35.773438 34.988281 36.863281 34.644531 37.84375 34 C 39.171875 33.121094 39.671875 31.886719 39.589844 30.332031 C 39.480469 28.207031 38.53125 26.484375 37.132812 24.964844 C 36.390625 24.160156 35.566406 23.441406 34.71875 22.75 C 34.648438 22.691406 34.566406 22.644531 34.421875 22.550781 C 34.574219 22.914062 34.804688 23.125 34.996094 23.355469 C 36.007812 24.585938 37.046875 25.792969 37.800781 27.210938 C 38.355469 28.257812 38.738281 29.363281 38.867188 30.542969 C 39.035156 32.089844 38.277344 33.296875 36.75 33.988281 C 35.6875 34.472656 34.558594 34.671875 33.417969 34.816406 C 30.390625 35.207031 27.351562 35.34375 24.304688 35.289062 C 22.34375 35.253906 20.378906 35.195312 18.417969 35.09375 C 16.234375 34.984375 14.066406 34.75 11.925781 34.28125 C 10.710938 34.015625 9.632812 33.460938 8.699219 32.640625 C 6.59375 30.796875 4.800781 28.6875 3.433594 26.234375 C 3.3125 26.019531 3.175781 25.800781 3.167969 25.539062 C 3.332031 25.457031 3.457031 25.554688 3.582031 25.597656 C 5.546875 26.28125 7.578125 26.542969 9.648438 26.5625 C 9.8125 26.5625 10.035156 26.640625 10.128906 26.457031 C 10.210938 26.292969 10.035156 26.160156 9.949219 26.03125 C 9.113281 24.785156 8.464844 23.453125 8.191406 21.964844 C 8.175781 21.878906 8.113281 21.789062 8.246094 21.675781 C 8.453125 22.011719 8.65625 22.339844 8.859375 22.671875 C 10.402344 25.21875 12.3125 27.429688 14.773438 29.128906 C 17.058594 30.703125 19.59375 31.613281 22.34375 31.941406 C 23.148438 32.035156 23.953125 32.109375 24.777344 32.042969 C 21.964844 31.25 19.277344 30.207031 16.96875 28.332031 C 18.082031 28.484375 19.179688 28.714844 20.3125 28.691406 C 18.238281 28.140625 16.144531 27.65625 14.464844 26.175781 C 15.101562 26.191406 15.695312 26.476562 16.339844 26.460938 C 13.699219 25.519531 11.347656 24.136719 9.398438 22.085938 C 9.570312 21.945312 9.707031 22.027344 9.828125 22.066406 C 13.457031 23.214844 17.1875 23.46875 20.960938 23.339844 C 22.695312 23.285156 24.421875 23.285156 26.132812 23.632812 C 27.269531 23.863281 28.335938 24.292969 29.386719 24.761719 C 29.5625 24.839844 29.730469 24.957031 29.957031 24.90625 C 30 24.644531 29.859375 24.433594 29.773438 24.214844 C 29.300781 23.015625 28.785156 21.832031 28.34375 20.621094 C 27.359375 17.933594 27.5 15.308594 28.894531 12.78125 C 29.820312 11.097656 31.25 10.132812 33.144531 9.835938 C 34.625 9.605469 35.992188 9.851562 37.195312 10.789062 C 37.605469 11.105469 37.941406 11.5 38.109375 11.996094 C 38.675781 13.679688 39.851562 14.816406 41.347656 15.675781 C 42.085938 16.101562 42.867188 16.4375 43.648438 16.761719 C 43.90625 16.867188 44.164062 16.992188 44.152344 17.3125 C 44.140625 17.644531 43.941406 17.871094 43.636719 17.996094 C 43.105469 18.214844 42.570312 18.15625 42.027344 18.050781 C 40.722656 17.796875 39.472656 17.347656 38.21875 16.925781 C 38.007812 16.855469 37.796875 16.785156 37.550781 16.890625 Z M 37.550781 16.890625 "/>
  </g>
</svg>